<?xml version="1.0" encoding="UTF-8"?>
<svg id="Calque_1" data-name="Calque 1" xmlns="http://www.w3.org/2000/svg" viewBox="0 0 484.21 312.44">
  <defs>
    <style>
      .cls-1 {
        fill-rule: evenodd;
      }
    </style>
  </defs>
  <path class="cls-1" d="M449.48,.93c-1.91,9.21-.01,11.19-4.98,25.31-3.69,10.49-9.9,20.06-17.51,28.01l-7.75,8.06c-10.42,9.46-27.09,16.51-39.7,22.31-1.03,.48-1.4,.67-2.26,1.1-6.31,3.1-13.49,5.07-19.94,7.82-11.17,4.78-22.68,10.36-28.79,21.32-.12,.22-.46,.85-.58,1.07-.35,.67-.44,.86-.82,1.66-4.09,8.66-2.05,19.38,2.24,27.36,.89,1.65,1.53,3.14,2.19,4.53,.78,1.64,1.94,3.78,2.49,5.06l2.72,7.38c.08,.32,.64,3.32,.68,3.55,.99,5.46,2.24,9.33,2.37,14.58l-3.69,11.92c-.72,1.68-1.12,2.64-1.7,4.06l-6.02,12.14-10.81,12.46c-.13,.12-.31,.28-.43,.4-.13,.11-.31,.28-.44,.4-2.11,1.85-4.27,2.96-6.73,4.15-12.38,5.98-16.45,5.05-29.97,13.71-6.08,3.9-9.87,7.69-14.25,13.24l-5.87,9.85c-.36,.87-.33,.97-.67,1.8-.96,2.34-2.17,3.21-2.1,6.12,.21,8.36,12.1-5.27,15.36-7.3l47.09-20.96c5.79-3.24,9.92-8.34,14.43-13.07,8.16-8.57,14.44-17.88,19.01-29.02l5.2-16.17c.89-2.4,.95-10.55,1.2-13.48,1.3-14.83-6.38-30.62,2.83-43.61,6.43-9.07,15.32-15.39,24.49-21.36,9.33-6.07,19.44-10.34,28.55-16.68,2.09-1.46,2.65-1.63,4.72-2.81l10.99-7.41c.13-.11,.31-.28,.44-.4l13.24-13.39c3.59-4.26,6.12-9.28,8.44-14.71l4.04-10.77c2.81-9.89,1.52-29.16-3.58-39.16-1.58,.17-2.9,.42-4.14,.93Z"/>
  <path class="cls-1" d="M20.69,27.25c.21,8.43,.2,16.85,3,25.01,1.26,3.7,2.83,6.38,4.73,9.54l1.73,3.3c4.13,7.75,10.82,13.61,17.11,19.57,1.47,1.39,1.83,1.82,3.59,3.06,2.66,1.87-1.81-1.14,1,.65l3.56,2.24c8.26,5.6,17.68,10.27,26.57,14.76l6.77,3.13c12.79,6.67,25.76,13.72,34.1,25.62,7.31,10.42,.48,42.37,6.75,56.9,2.98,6.91,4.45,14.17,9.04,21.22,.1,.15,.23,.35,.33,.51,.1,.15,.22,.36,.32,.52l5.18,8.21c3.92,4.79,7.05,9.09,11.79,13.21,7.16,6.24,10.81,11.35,21.02,13.75l21.39,6.55c3.56,1.31,6.61,2.3,10.22,3.77,6.55,2.66,11.71,6.76,17.01,11.14,2.58,2.13,8.11,5.7,7.97,.16-.07-2.78-3.81-8.21-6.05-11.56-.1-.15-.23-.36-.33-.5l-1.44-1.9c-5.6-6.73-12.19-12.8-20.27-17.1-9.32-4.96-22.05-7.19-31.42-12.21l-9.94-8.33c-4.13-4.69-7.56-10.14-10.32-15.61-.71-1.4-2.14-3.33-2.83-4.71-9.18-18.37-1.76-35.5,5.65-52.53,3.78-8.68,3.38-16.41-.85-24.17-1.16-2.13-1.09-2.88-2.72-4.82-12.94-15.4-41.09-21.24-59.47-27.98-2.64-.97-2.75-1.58-5.51-2.74l-10.78-4.89c-1.45-.81-1.22-.6-2.75-1.38l-11.91-7.96c-1.47-1.08-2.8-2.13-4.1-3.37l-13.89-14.42c-.97-1.36-.79-1.15-1.76-2.41l-5.45-8.78c-.08-.18-.17-.41-.25-.59-.08-.18-.17-.4-.26-.58-2.81-5.92-5.68-11.48-6.79-18.47-.72-4.56-1.63-9.73-3.5-13.39-5.73,1.68-4.18,7.82-4.92,12.37-.41,2.48-1.38,2.18-1.3,5.26Z"/>
  <path class="cls-1" d="M392.02,135.5l.12,4.99c5.39-.13,3.58-.08,6.28-2.95l8.9-7.77c11.18-8.89,20.03-12.29,29.03-18.66,2.46-1.74,4.2-2.87,7.03-4.68,3.03-1.93,4.31-3.44,6.98-5.54,4.52-3.54,8.15-6.94,11.73-11.58l4.52-7.07c5.47-9.17,4.21-10.72,6.55-17.32,1.61-4.53,.62-5.21,1.15-10.27,.63-6.04,1.05-15.71,.87-22.72-8.85-1.89-5.24,1.82-10.46,14.41l-8.62,14.54c-9.65,13.6-12.59,13.58-24,22.64-5.11,4.05-17.09,11.53-20.94,15.8-5.49,6.1-9.8,10.69-13.29,19.03-1.11,2.67-5.94,14.75-5.88,17.15Z"/>
  <path class="cls-1" d="M5.84,66.73c.2,8.25,7.58,23.34,12.42,30.47,2.09,3.08,7.81,7.83,10.75,10.89,8.94,9.28,28.07,17.92,39.98,24.56l15.69,10.82c12.46,12.86,8.65,.28,5.34-8.17-.67-1.7-.09,.05-.9-2.47l-3.69-8.07c-.7-1.25-1.45-2.14-2.37-3.49-10.45-15.25-22.62-21.55-37.7-31.21-6.39-4.1-10.75-7.61-16.03-13.02l-1.2-1.29c-.57-.63-1.06-1.2-1.55-1.79-5.93-7.14-5.68-6.63-9.62-13.79-2.92-5.31-5.1-10.65-6.71-16.84l-4.99,.12,.57,23.29Z"/>
  <path class="cls-1" d="M383.97,180.64c3.24,1.72,24.77,.23,29.96,.1,8.51-.21,19.94-2.63,26.51-4.81l11.31-4.67c6.68-2.95,11.58-7.25,16.24-12.15,5.67-5.96,3.42-3.07,8.19-10.89l2.55-4.88c.12-.22,.48-.83,.6-1.06l3.9-10.24c1.15-3.13,2.17-4.65-2.36-4.54-2.7,.07-7.38,6.63-9.92,8.43-10.43,7.38-25.76,14.79-37.83,18.4-8.26,2.47-19.1,2.01-29.76,8.22-1.75,1.02-3.88,2.49-5.57,3.63-3.69,2.48-3.21,3.86-6.69,6.63-2.55,2.03-6.19,3.94-7.13,7.83Z"/>
  <path class="cls-1" d="M389.31,160.53c5.15-.13,4.45-.06,7.82-2.31,5.28-3.53,16.23-8.46,22.19-9.74,16.64-3.57,35.98-8.35,46.72-21.31,5.1-6.15,8.82-11.63,11.23-19.37l3.96-12.49c.23-.78,.95-3.3,1.09-3.85,.83-3.18,.97-.19,.08-3.96-7.86,.19-3.55,2.19-11.31,8.73-12.71,10.7-29.36,21.93-44.69,28.12-5.21,2.1-15.54,8.83-19.67,12.14l-2.67,2.33c-5.75,5.22-7.21,8.07-11.62,14.12-1.79,2.45-2.89,3.52-3.13,7.58Z"/>
  <path class="cls-1" d="M1.06,143.41c.07,2.69-.48-.44,2.13,4.59,3.3,6.36,3.28,7.67,8.04,14.59l1.03,1.48c3.15,4.6,1.45,2.15,4.75,5.25,4.32,4.07,6.37,6.14,11.86,9.72,5.28,3.45,20.6,7.91,26.76,8.58l43.9,.81c8.07-.2-5.21-9.02-5.21-9.03-13.78-15.02-29.62-13.15-41.69-15.93-5.33-1.23-9.72-2.83-14.47-4.43-2.26-.76-4.33-1.38-6.72-2.33l-9.49-4.54c-.96-.49-2.16-1.3-3.14-1.82-12.57-6.71-9.9-11.96-17.87-11.94l.12,4.99Z"/>
  <path class="cls-1" d="M0,100.16c.1,4.04,.76,4.59,2.26,9.57l7.66,17.54c1,1.36,.22,.23,1.11,1.39,4.26,5.53,9.33,12.72,15.76,16.72,4.06,2.53,16.11,6.96,21.48,8.15,12.91,2.87,24.77,4.38,36.77,10.01l1.64,.84c4.05,2.18,14.96,7.2,7.64-1.99-10.51-13.21-14.41-19.16-32.02-27.01l-11.74-4.73c-3.6-1.34-4.07-1.88-7.19-3.54-2.6-1.38-4.6-2.14-7.3-3.43l-6.93-3.82c-6.46-4.08-16.98-10.34-21.13-16.2C6.11,100.98-.16,93.6,0,100.16Z"/>
  <path class="cls-1" d="M128.24,205.21c-.06-2.47-2.33-6.63-3.43-9.19l-3.32-9.32c-2.48-8.16,1.12-38.76-5.34-51.56l-4.93-7.62c-5.74-6.67-6.75-7.36-14.89-11.66-2.26-1.2-5.87-3.66-8.49-4.06-1.73-.26-1.86-1.51-2.39,1.26-.56,2.96,3.88,6.2,6.18,10.29l9.36,25.15c.66,6.62,1.58,9.17,2.59,15.2,.48,2.84,.29,4.85,1.02,7.46l5.46,13.04c.81,1.56,.12,.15,.82,1.69,3.38,7.42,4.91,7.8,8.46,14.15,3.44,6.17,8.98,8.47,8.9,5.16Z"/>
  <path class="cls-1" d="M360.26,197.86c.11,4.38,2.57,3.5,4.33,1.83,2.01-1.9,.76-.94,1.67-2.61l12.97-25.84c3.19-8.34,2.54-15.72,3.95-22.23,1.72-7.95,1.21-13.14,1.88-15.27,3.61-11.48,2.65-8.22,7.84-18.53,1.69-3.36,1.43-2.45,3.29-5.05,.88-1.23,3.16-5.64,.07-5.57-5.49,.13-13.81,6.69-18.06,10.43l-3.84,3.65c-.16,.18-.59,.73-.74,.92-.11,.13-.26,.32-.37,.46-.11,.13-.26,.32-.37,.46-4.32,5.39-3.98,6.34-5.96,11.39-1.19,3.04-1.51,2.17-1.5,6.7,.03,10.64,1.1,21.96,.86,32.5l-2.17,14.18c-.54,3.79-.89,2.75-2.36,5.88-.9,1.93-1.56,3.79-1.49,6.7Z"/>
  <path class="cls-1" d="M372.09,205.06c8.59-.21,10.15-2.75,14.91-2.86,5.36-.13,7.51,1.48,13.35,1.34,24.91-.61,35.67,1.41,51.86-15.61,8.2-8.63,4.47-9.07-.86-8.94-3.74,.09,.37-.02-2.33,1.03-1.45,.56-.62,.28-2.54,.83-1.85,.54-3.74,1.14-5.26,1.49-17.71,4.08-29.92,2.51-37.35,4.24-12.19,2.83-15.42,.95-29.94,11.3-1.37,.98-8.22,7.34-1.83,7.19Z"/>
  <path class="cls-1" d="M66.82,211.71l23.29-.57c8.19-.64,9.16-2.14,19.85-.35,2.34,.39,7.65,2.06,7.55-1.99-.08-3.3-12.45-9.38-15.66-10.86-3.81-1.76-17.66-4.02-22.96-4.04-14.58-.04-9.14,1.13-25.26-.77-9.51-1.12-17.85-3.97-23.15-3.84,1.78,6.89,1.5,4.49,5.21,9.03,6.89,8.43,18.92,13.68,31.12,13.38Z"/>
  <path class="cls-1" d="M131.92,219.27c-4.06-1.83-5.07-2.03-10.81-2.3-4.41-.2-6.48-1.44-11.75-1.31-10.25,.25-21.37-1.13-26.67,3.85l-2.18,3.63c-.55,2.86-.35,8.18,2.94,10.36,.15,.1,.35,.24,.51,.32,2.52,1.32,10.94,.99,14.96,.33,5.63-.93,18.3-7.59,25.19-10.13,5.06-1.87,5.09-.45,7.82-4.74Z"/>
  <path class="cls-1" d="M356.49,213.77c1.03,3.51,3.53,3.33,7.36,4.22,3.8,.88,23.19,9.18,27.09,9.09,6.14-.15,18.36,2.06,18.11-7.93-.37-15.04-29.74-10.16-38.97-8.68-5.15,.83-8.71,.82-13.59,3.31Z"/>
  <path class="cls-1" d="M100.86,242.5c.15,6.2,3.3,9.07,9.37,8.92,7.8-.19,12.07-5.77,16-9.95,2.75-2.93,11.06-11.34,11.71-14.03-2.81-1.4-1.91-1.27-4.46-1l-16.55,4.55c-5,1.43-12.06,4.01-14.9,8.56-.81,1.3-1.22,1.2-1.17,2.94Z"/>
  <path class="cls-1" d="M350.87,222.23c.85,2.88,10.29,11.42,13.59,14.73l1.71,1.62c.13,.12,.31,.28,.43,.4l1.33,1.17c10.83,8.97,24.99,4.37,19.17-7.34-1.36-2.73-1.07-2.29-3.83-3.65-9.7-4.78-10.95-3.28-18.34-5.48-.2-.06-.41-.15-.61-.21-5.98-1.85-9.38-3.81-13.45-1.24Z"/>
  <path class="cls-1" d="M123.65,255.26c.09,3.78-.55,3.71,2.58,5.82,5.98,4.02,12.65-.74,14.51-6.6,2.01-6.36,7.35-18.12,1.59-17.98-.38,0-18.85,11.71-18.68,18.77Z"/>
  <path class="cls-1" d="M343.67,234.06l9.07,20.34c8.46,8.62,23.2-4.03,5.37-15.88-4.34-2.88-14.61-11.38-14.44-4.46Z"/>
  <g>
    <path class="cls-1" d="M181.09,153.98c7.7-.19,12.15-9.72,15.5-15.3,.09-.15,.22-.36,.31-.51l3.83-6.92c6.73-9.39,10.89-13.43,21.87-18.98,24.79-12.55,56.4-2.74,72.5,17.54,2.18,2.74,8.1,14.45,8.16,17.02l.45,18.3-3.65,10.34c-.07,.2-.13,.42-.2,.62-3.75,10.68-6.39,12.67-6.08,25.08,.12,4.79,7.6,3.59,9.35-.84,1.83-4.64-1.18-4.9,1.5-10.76l5.75-15.64c3.6-10.83,3.23-12.27,2.95-24-.11-4.42-4.95-15.46-8.15-20.45l-9.29-11.57c-5.1-5.14-10.96-8.02-16.95-11.21-8.82-4.69-14.29-4.98-22.22-6.53-12.06-2.35-14.92-.74-26.76,1.25-5.12,.86-13.89,5.16-18.74,8.15l-17.68,17.28c-2.87,3.46-2.02,5.27-5.46,10.23l-6.36,8.57c-6.88,6.04-3.08,8.41-.61,8.35Z"/>
    <path class="cls-1" d="M174.78,168.29c.11,4.44,.11,4.16,5.09,4.04,3.14-.08-.81,.48,4.61-2.11,2.35-1.12,2.76-1.44,4.79-2.75l11.52-9.34c.11-.14,.25-.33,.36-.47l4.48-5.48c.15-.19,.59-.73,.75-.91,4.43-5.41,2.69-7.18,9.88-16.58l7.62-7.36c1.68-1.15,.37-.24,2.12-1.23,1.18-.66,1.45-.85,2.65-1.54,15.9-9.18,34.16-5.45,47.01,4.31l6.24,6.24c2.9,3.21,5.08,8.15,6.23,12.23,2.76,9.8,.06,19.04-3.69,27.91l-.92,2.37c-4.19,9.77-8.64,28.6-2.2,39.19,1.86,3.06,10.09,6.72,6.41-8.49-1.45-6-1.74-3.85-.39-10.02,3.12-14.31-.51-6.35,5.46-21.6,4.63-11.84,1.96-5.92,4.97-15.59,.11-.35,.61-2.69,.61-2.72,.29-2.64-.03-3-.41-5.14l-2.25-9.63c-1.35-6.99-8.1-14.32-8.19-14.44l-10.25-8.86c-15.09-8.94-21.5-8.12-38.15-7.71-2.64,.06-9.15,2.31-11.89,3.3-6.55,2.39-14.62,9.23-18.86,14.54-9.02,11.31-4.12,12.34-17.02,24.41-8.82,8.26-16.72,9.66-16.62,13.42Z"/>
    <path class="cls-1" d="M173.52,184.96c5.71,3.62,9.86,.68,16.18-2.46,8.59-4.26,11.49-5.88,18.18-11.94,18.53-16.77,15.37-25.58,24.61-32.61,9.87-7.51,21.31-7,31.53-1.11l2.02,1.29c.19,.15,.73,.59,.91,.75l2.05,2.11c.12,.13,.28,.31,.4,.44,6.28,6.97,4.77,7.66,5.02,17.76,.05,2.01-7.43,19.47-7.75,21.86-.36,2.69,.06,1.97-.65,4.25-.97,3.12-1.74,1.6-1.67,4.09l.57,23.29c.06,2.64,1.02,3.22,1.75,4.98,.55,1.32,3.05,11.54,8.64,11.41,1.91-.05,.96-.31,3.31-.91,.49-2.35,.99-2.53-.03-5.02l-.57-1.11c-.12-.23-.47-.89-.59-1.12-.09-.17-.2-.38-.29-.56l-2.9-6.36c-1.11-2.69-.92,1.35-1.01-2.35-.34-13.68-.84-22.35,4.9-35.95,4.09-9.69,3.33-4.88,4.98-13.95,1.74-9.56,1.93-1.96-.34-13.01-1.26-6.13-2.19-7.24-6.74-12.55l-3.03-2.79c-16.05-11.21-35.6-12.09-49.32,1.82-6.46,6.56-8.72,15.31-16.62,24.79-.11,.13-.27,.32-.38,.45-.11,.13-.27,.32-.39,.45l-1.99,2.17c-1.15,1.19-.2,.34-1.25,1.24-11.21,9.6-13.75,9.6-26.21,15.66-2.26,1.1-3.12,1.72-3.31,4.97Z"/>
    <path class="cls-1" d="M178.74,193.99c.43,9.18,9.45,4.32,14.68,1.79l25.13-15.88,9.16-9.96c.11-.13,.26-.33,.37-.46l.74-.92c3.32-4.09,5.55-6.91,7.53-11.52,.08-.18,.16-.41,.24-.58l1.74-3.22c7.55-13.62,20.82-8.01,21.42-.19,.51,6.62-3.05,11.96-6.12,18-.08,.17-.2,.38-.28,.54l-22.7,28.75c-9.45,7.89-21.13,12.75-32.78,15.9-4.12,1.11-6.07,.54-5.96,4.88,.11,4.55,8.98,2.03,10.86,1.41,8.4-2.76,12.66-3.12,21.85-8.44l16.9-12.34c1.06-.97,1.48-1.41,2.51-2.49,9.52-9.98,8.29-9.74,14.76-19.25,1.36-2,1.97-2.95,3.09-5.18l1.53-3.42c3.69-7.71,9.19-16.48,3.5-24.79-3.1-4.52,2.47,3.13-.71-.96l-.75-.91c-6.56-7.56-20.59-9.8-29.33-.96-.73,.74-1.41,1.21-2.24,1.93-3.69,3.21-3.21,4.45-4.19,6.57l-9.15,14.04c-4.03,5.03-6.34,6.52-10.75,10.89-5.38,5.33-23.74,14.62-31.03,16.76Z"/>
    <path class="cls-1" d="M200.45,230.91c.06,2.25,.45,2.28,.93,4.14,9.16-.22,8.25-.56,14.9-2.87,10.22-3.55,18-6.87,26.48-14.59,1.96-1.78,1.02-.86,2.92-2.09l2.38-1.8c2.29-1.67-.21-1.12,3.52-1.52,.06,2.35-.08,6.14,.21,8.31,.56,4.15-.01,.57,1.49,4.4,.08,.19,.16,.41,.23,.61,.23,.6,.38,1.2,.63,1.89l3.99,6.91c2.22,2.6,2.31,2.63,4.03,2.59,10.27-.25,1.71-9.3,.58-11.7-.98-2.09-.64-2.02-1.42-4.48-3.41-10.64,1.56-32.32-9.25-23.49l-2.94,2.89c-4.38,4.2-7.12,9.04-14.15,14.15-.7,.51-.57,.38-1.45,1.06-.13,.1-1.85,1.48-1.85,1.48l-7.1,3.8c-11.78,6.32-8.72,4.06-20.7,7.91-1.03,.33-3.49,.81-3.45,2.4Z"/>
    <path class="cls-1" d="M183.97,203.85c-.06,.1-7.29,7.67,3.51,7.4,6.22-.15,11.95-3.02,17.48-5.29,7.53-3.1,12.19-6.06,18.39-10.93l8.7-7.15c1.37-1.32,2.38-2.39,3.63-3.86,.85-1,.66-.8,1.48-1.84,7.7-9.68,4.66-4.33,12.33-17.5l4.06-8.32c-2.92-4.13-6.94-4.91-9.3,.08-.61,1.29-.39,1.17-.93,2.36-.08,.17-.18,.39-.26,.56l-1.23,2.08c-2.03,3.33-3.44,5.29-5.65,8.43-11.38,16.08-21.79,24.06-39.65,31.29-5.43,2.2-4.57,2.48-12.54,2.68Z"/>
    <path class="cls-1" d="M221.53,242.04c8.86,1.84,12.2-1.59,20.65-6.33,1.1,.77,1.69,1.41,2.5,2.49,.11,.14,.23,.36,.33,.5,.15,.2,.52,.82,.67,1.02,3.19,4,8.29,1.95,8.21-.97l-4.59-10.55c-4.82-5.54-8.45,.23-22.56,6.63-6.06,2.75-5.33,2.7-5.22,7.21Z"/>
  </g>
  <g>
    <path d="M147.81,297.4c-2.9-2.81-4.35-6.39-4.35-10.71s1.45-7.9,4.35-10.71c2.9-2.81,6.44-4.22,10.63-4.22,3.24,0,6.13,.86,8.65,2.58,2.52,1.72,4.28,4.1,5.28,7.15h-8.49c-1.11-2.14-2.88-3.2-5.32-3.2s-4.36,.76-5.76,2.29c-1.4,1.53-2.1,3.56-2.1,6.11s.7,4.59,2.1,6.12c1.4,1.53,3.32,2.29,5.76,2.29s4.22-1.07,5.32-3.2h8.49c-1,3.05-2.76,5.44-5.28,7.16-2.52,1.72-5.41,2.58-8.65,2.58-4.19,0-7.73-1.41-10.63-4.22Z"/>
    <path d="M183.02,300.91l-9.03-22.76h8.07l5.16,15.18,5.66-15.18h7.45l-14.81,34.28h-7.45l4.95-11.52Z"/>
    <path d="M210.73,281.2c1.58-2.19,3.85-3.29,6.8-3.29s5.46,1.12,7.51,3.35c2.05,2.23,3.08,5.08,3.08,8.55s-1.03,6.31-3.08,8.53c-2.05,2.22-4.53,3.33-7.45,3.33s-5.2-1.22-6.86-3.66v3.37h-7.11v-30.78h7.11v10.61Zm8.61,12.83c1.03-.98,1.54-2.39,1.54-4.22s-.51-3.24-1.54-4.24c-1.03-1-2.2-1.5-3.54-1.5s-2.51,.49-3.54,1.48c-1.03,.98-1.54,2.39-1.54,4.22s.51,3.25,1.54,4.24c1.03,1,2.2,1.5,3.54,1.5s2.51-.49,3.54-1.48Z"/>
    <path d="M234.17,298.42c-2.15-2.16-3.22-5.05-3.22-8.65s1.07-6.48,3.22-8.63c2.15-2.15,4.93-3.22,8.34-3.22,2.83,0,5.23,.7,7.2,2.1,1.97,1.4,3.27,3.4,3.91,6.01h-7.7c-.67-1.39-1.75-2.08-3.27-2.08s-2.64,.53-3.37,1.6c-.73,1.07-1.1,2.48-1.1,4.22s.37,3.15,1.1,4.22,1.81,1.6,3.22,1.6c.89,0,1.58-.15,2.08-.46,.5-.3,.94-.85,1.33-1.62h7.7c-.64,2.5-1.96,4.48-3.95,5.95-2,1.47-4.38,2.2-7.16,2.2-3.41,0-6.19-1.08-8.34-3.24Z"/>
    <path d="M264.72,278.16v4.33c1.66-3.05,3.88-4.58,6.66-4.58v7.24h-1.75c-1.64,0-2.86,.39-3.68,1.17-.82,.78-1.23,2.14-1.23,4.08v10.98h-7.11v-23.21h7.11Z"/>
    <path d="M276.62,298.33c-2.05-2.22-3.08-5.06-3.08-8.53s1.03-6.32,3.08-8.55c2.05-2.23,4.55-3.35,7.51-3.35s5.22,1.1,6.8,3.29v-3.04h7.11v23.21h-7.11v-3.37c-1.72,2.44-4.02,3.66-6.91,3.66s-5.35-1.11-7.4-3.33Zm12.77-4.33c1.03-1,1.54-2.41,1.54-4.24s-.51-3.24-1.54-4.22c-1.03-.98-2.21-1.48-3.54-1.48s-2.51,.5-3.54,1.5c-1.03,1-1.54,2.41-1.54,4.24s.51,3.24,1.54,4.22c1.03,.98,2.21,1.48,3.54,1.48s2.51-.5,3.54-1.5Z"/>
    <path d="M314.43,278.16v5.91h-2.95v17.31h-7.11v-17.31h-2.16v-5.91h2.16v-.87c0-2.94,.78-5.09,2.35-6.45,1.57-1.36,4.03-2.04,7.38-2.04v6.03c-.94,0-1.62,.18-2.02,.54-.4,.36-.6,1-.6,1.91v.87h2.95Z"/>
    <path d="M328.12,295.34h2.54v6.03h-3.62c-2.61,0-4.62-.58-6.05-1.73-1.43-1.15-2.14-3.13-2.14-5.93v-9.65h-2.16v-5.91h2.16v-5.66h7.11v5.66h4.66v5.91h-4.66v9.65c0,1.08,.72,1.62,2.16,1.62Z"/>
  </g>
</svg>